<svg xmlns="http://www.w3.org/2000/svg"  viewBox="0 0 80 80" width="80px" height="80px"><path fill="#dcd5f2" d="M69.5,53.273C69.5,66.545,59.667,76.5,40,76.5s-29.5-9.955-29.5-23.227 C10.5,35.023,28.528,3.5,40,3.5S69.5,35.023,69.5,53.273z"/><path fill="#8b75a1" d="M40,77c-18.505,0-30-9.092-30-23.728c0-8.632,4.03-20.887,10.516-31.982C27.212,9.838,34.496,3,40,3 s12.788,6.838,19.484,18.29C65.97,32.386,70,44.641,70,53.272C70,67.908,58.505,77,40,77z M40,4C29.159,4,11,34.853,11,53.272 C11,67.291,22.112,76,40,76s29-8.709,29-22.728C69,34.853,50.841,4,40,4z"/></svg>